<?xml version="1.0" standalone="no"?>
<!DOCTYPE svg PUBLIC "-//W3C//DTD SVG 20010904//EN"
 "http://www.w3.org/TR/2001/REC-SVG-20010904/DTD/svg10.dtd">
<svg version="1.0" xmlns="http://www.w3.org/2000/svg"
 width="1200.000000pt" height="1200.000000pt" viewBox="0 0 1200.000000 1200.000000"
 preserveAspectRatio="xMidYMid meet">

<g transform="translate(0.000000,1200.000000) scale(0.100000,-0.100000)"
fill="#000000" stroke="none">
<path d="M6152 8627 l-552 -552 165 -165 165 -165 -115 -115 -115 -115 -165
165 -165 165 -1148 -1148 -1147 -1147 -653 -2 -653 -3 69 -100 c323 -471 402
-587 402 -593 0 -4 -108 -162 -238 -352 l-238 -345 1302 -3 1303 -2 16 -53
c54 -181 34 -376 -56 -528 l-31 -52 351 -351 351 -351 667 667 668 668 1950 2
1951 3 -238 345 c-131 190 -238 348 -238 352 0 4 106 162 235 350 l235 343
-1283 3 -1282 2 -148 148 -147 147 115 115 115 115 165 -165 165 -165 555 555
555 555 -347 347 -346 346 -57 -39 c-207 -141 -457 -156 -689 -42 -114 57
-223 169 -283 293 -53 108 -68 175 -68 305 0 137 35 248 116 371 l37 56 -344
344 c-189 189 -346 344 -349 344 -3 0 -254 -249 -558 -553z m280 -1384 l168
-168 -116 -116 -116 -116 -168 171 -169 171 112 113 c61 61 114 112 117 112 3
0 80 -75 172 -167z m668 -668 l165 -165 -115 -115 -115 -114 -168 166 -169
166 114 114 c62 62 115 113 118 113 3 0 79 -74 170 -165z m-2640 -1162 c0 -5
-54 -206 -120 -448 -119 -434 -143 -546 -122 -559 34 -21 99 55 142 163 27 70
28 71 45 64 23 -8 19 -24 -36 -132 -38 -76 -59 -107 -87 -126 -45 -31 -104
-33 -131 -6 -27 27 -44 97 -37 149 3 24 56 223 116 443 61 220 108 404 105
409 -3 6 -37 10 -76 10 -62 0 -69 2 -69 20 0 19 7 20 135 20 74 0 135 -3 135
-7z m426 -10 c-3 -10 -58 -209 -122 -443 -113 -416 -139 -539 -115 -554 31
-20 101 66 143 176 24 61 25 63 46 49 27 -16 -62 -196 -124 -251 -31 -27 -42
-31 -81 -28 -62 4 -86 35 -91 121 -3 55 11 112 111 477 64 228 113 418 111
422 -3 5 -39 8 -80 8 -41 0 -74 2 -74 4 0 2 3 11 6 20 5 14 27 16 141 16 123
0 134 -1 129 -17z m3060 0 c-10 -35 -165 -609 -171 -635 l-7 -28 55 0 c52 0
58 3 82 34 14 18 37 62 50 97 39 100 57 129 86 145 75 38 159 -5 159 -83 0
-68 -53 -115 -104 -92 -31 15 -39 45 -20 81 16 30 12 48 -10 48 -19 0 -42 -30
-56 -75 -19 -60 -68 -153 -85 -162 -12 -7 -8 -13 20 -26 24 -12 41 -29 52 -55
14 -34 14 -44 -1 -112 -27 -127 -19 -158 32 -124 41 27 59 53 94 137 24 58 37
77 51 77 16 0 18 -5 12 -27 -15 -65 -76 -171 -119 -211 -40 -37 -51 -42 -92
-42 -37 0 -51 5 -75 29 -25 25 -29 37 -29 84 0 30 7 74 15 97 17 48 19 98 6
119 -6 10 -32 16 -73 19 l-63 4 -46 -169 -45 -168 -56 -3 -55 -3 133 488 c74
268 134 498 134 511 0 21 -4 22 -75 22 -41 0 -75 2 -75 4 0 2 3 11 6 20 5 14
27 16 141 16 123 0 134 -1 129 -17z m-4685 -4 c174 -53 207 -291 60 -435 -94
-92 -194 -124 -387 -124 l-132 0 -11 -32 c-39 -128 -101 -373 -97 -384 4 -11
28 -14 96 -14 89 0 91 -1 88 -22 l-3 -23 -251 -3 -251 -2 5 25 c4 24 8 25 72
25 51 0 70 4 82 18 8 9 70 219 138 466 100 365 120 450 109 457 -8 5 -40 9
-71 9 -50 0 -58 3 -58 18 0 10 3 22 7 25 12 12 563 8 604 -4z m3201 -96 c-69
-296 -66 -288 -88 -291 -21 -3 -21 0 -17 115 5 130 -6 167 -58 205 -33 25
-128 35 -152 16 -21 -16 -264 -896 -254 -922 5 -13 22 -16 87 -16 79 0 86 -3
74 -34 -5 -14 -38 -16 -261 -16 l-254 0 3 23 c3 20 9 22 90 27 48 3 92 10 98
16 14 14 251 883 248 909 -2 15 -12 21 -37 23 -122 12 -243 -95 -318 -279 -23
-57 -32 -69 -51 -69 -18 0 -22 4 -18 18 3 9 28 94 56 187 28 94 53 176 55 183
3 9 95 12 413 12 l410 0 -26 -107z m-1115 55 c49 -46 13 -128 -56 -128 -49 0
-81 29 -81 75 0 22 8 43 20 55 28 28 87 27 117 -2z m1513 2 c47 -47 9 -130
-59 -130 -71 0 -107 76 -59 127 28 30 89 32 118 3z m2396 3 c-20 -70 -86 -323
-86 -332 0 -7 28 -11 80 -11 44 0 80 -2 80 -4 0 -30 -15 -36 -96 -36 l-83 0
-11 -42 c-7 -24 -36 -134 -66 -244 -57 -213 -64 -263 -38 -285 37 -31 98 36
135 149 25 78 29 84 48 73 34 -21 -49 -218 -108 -258 -70 -47 -157 -22 -181
53 -18 52 -8 111 55 339 30 110 55 203 55 208 0 4 -22 7 -49 7 -44 0 -49 2
-44 20 4 17 14 20 58 20 l52 0 48 180 48 180 54 0 c47 0 54 -2 49 -17z m-5399
-344 c75 -28 124 -110 131 -220 10 -177 -92 -356 -244 -426 -46 -21 -67 -25
-119 -21 -53 3 -71 9 -102 35 -21 16 -49 52 -63 79 -22 42 -25 61 -24 144 0
113 28 191 97 280 90 114 223 167 324 129z m1353 1 c43 -23 63 -100 50 -187
-6 -36 -37 -123 -75 -211 -66 -151 -77 -200 -51 -221 36 -30 108 51 162 181
12 32 25 48 37 48 9 0 17 -7 17 -16 0 -32 -70 -162 -113 -209 -38 -42 -48 -48
-93 -52 -47 -5 -52 -3 -77 26 -58 69 -47 165 42 371 68 158 81 209 58 228 -20
17 -58 1 -87 -35 -12 -15 -40 -65 -62 -110 -36 -75 -58 -98 -72 -75 -3 5 15
49 39 98 70 144 152 203 225 164z m1530 -18 c61 -62 50 -165 -41 -374 -34 -78
-64 -158 -66 -178 -6 -45 13 -65 49 -51 35 13 63 51 110 149 37 77 68 106 68
63 0 -38 -80 -178 -125 -220 -37 -34 -51 -41 -86 -41 -83 0 -124 84 -99 206 7
33 39 122 72 198 66 153 79 205 55 225 -37 30 -126 -72 -168 -191 -9 -25 -19
-38 -31 -38 -25 0 -23 25 11 95 79 166 179 228 251 157z m671 5 c43 -29 59
-60 59 -120 0 -40 -5 -53 -29 -78 -35 -34 -72 -38 -101 -9 -28 28 -25 54 10
93 47 54 36 97 -26 97 -113 0 -233 -241 -234 -468 0 -68 2 -76 29 -103 71 -71
188 -15 262 126 25 46 59 62 59 27 0 -28 -73 -136 -112 -165 -72 -56 -162 -72
-231 -43 -73 30 -127 132 -127 241 0 213 175 425 351 425 42 0 65 -6 90 -23z
m1370 -15 c58 -64 30 -172 -60 -233 -58 -38 -136 -66 -209 -75 -68 -7 -61 5
-77 -130 -13 -103 25 -164 100 -164 74 0 142 56 196 163 13 24 26 37 39 37 25
0 25 -11 -1 -62 -29 -58 -107 -138 -154 -159 -56 -26 -137 -25 -186 3 -41 23
-78 71 -97 127 -15 41 -15 150 -1 210 27 121 117 238 222 291 55 28 70 31 131
28 62 -3 71 -7 97 -36z"/>
<path d="M2947 5346 c-8 -8 -25 -52 -37 -98 -13 -46 -40 -145 -60 -222 l-38
-138 127 4 c147 5 183 19 250 94 49 56 71 122 71 213 0 79 -24 125 -75 147
-48 20 -218 19 -238 0z"/>
<path d="M3734 4980 c-32 -13 -74 -68 -110 -145 -76 -160 -98 -363 -45 -419
60 -64 153 -13 216 118 86 180 102 422 30 450 -22 8 -65 7 -91 -4z"/>
<path d="M8600 4966 c-56 -38 -96 -100 -124 -194 l-15 -53 57 6 c84 10 154 45
182 90 31 51 39 129 15 155 -24 27 -73 25 -115 -4z"/>
</g>
</svg>
